{
    "asset" : {
        "generator" : "Khronos glTF Blender I/O v3.2.40",
        "version" : "2.0"
    },
    "scene" : 0,
    "scenes" : [
        {
            "name" : "Scene",
            "nodes" : [
                0,
                1,
                2,
                3,
                4,
                5
            ]
        }
    ],
    "nodes" : [
        {
            "mesh" : 0,
            "name" : "calculator-base.001",
            "rotation" : [
                0.7071068286895752,
                0,
                0,
                0.7071067094802856
            ]
        },
        {
            "mesh" : 1,
            "name" : "calculator-base.002",
            "rotation" : [
                0.7071068286895752,
                0,
                0,
                0.7071067094802856
            ]
        },
        {
            "mesh" : 2,
            "name" : "calculator-base.003",
            "rotation" : [
                0.7071068286895752,
                0,
                0,
                0.7071067094802856
            ]
        },
        {
            "mesh" : 3,
            "name" : "calculator-base.004",
            "rotation" : [
                0.7071068286895752,
                0,
                0,
                0.7071067094802856
            ]
        },
        {
            "mesh" : 4,
            "name" : "calculator-base.005",
            "rotation" : [
                0.7071068286895752,
                0,
                0,
                0.7071067094802856
            ]
        },
        {
            "mesh" : 5,
            "name" : "calculator-base.006",
            "rotation" : [
                0.7071068286895752,
                0,
                0,
                0.7071067094802856
            ]
        }
    ],
    "materials" : [
        {
            "doubleSided" : true,
            "name" : "baseMaterial",
            "pbrMetallicRoughness" : {
                "baseColorTexture" : {
                    "index" : 0
                },
                "metallicFactor" : 0,
                "metallicRoughnessTexture" : {
                    "index" : 1
                }
            }
        },
        {
            "doubleSided" : true,
            "name" : "buttonsBaseMaterial",
            "pbrMetallicRoughness" : {
                "baseColorTexture" : {
                    "index" : 2
                },
                "metallicFactor" : 0,
                "metallicRoughnessTexture" : {
                    "index" : 3
                }
            }
        },
        {
            "doubleSided" : true,
            "name" : "displayMaterial",
            "pbrMetallicRoughness" : {
                "baseColorTexture" : {
                    "index" : 4
                },
                "metallicFactor" : 0,
                "roughnessFactor" : 0.30000001192092896
            }
        },
        {
            "doubleSided" : true,
            "name" : "signMaterial",
            "pbrMetallicRoughness" : {
                "baseColorFactor" : [
                    0.05490199849009514,
                    0.05490199849009514,
                    0.05490199849009514,
                    1
                ],
                "metallicFactor" : 0,
                "roughnessFactor" : 0.5
            }
        },
        {
            "doubleSided" : true,
            "name" : "dropMaterial",
            "pbrMetallicRoughness" : {
                "baseColorFactor" : [
                    0.01176500041037798,
                    0.01176500041037798,
                    0.01176500041037798,
                    1
                ],
                "metallicFactor" : 0,
                "roughnessFactor" : 0.5
            }
        },
        {
            "doubleSided" : true,
            "name" : "dropButtonMaterial",
            "pbrMetallicRoughness" : {
                "baseColorFactor" : [
                    0.01176500041037798,
                    0.01176500041037798,
                    0.01176500041037798,
                    1
                ],
                "metallicFactor" : 0,
                "roughnessFactor" : 0.5
            }
        }
    ],
    "meshes" : [
        {
            "name" : "meshId0_name",
            "primitives" : [
                {
                    "attributes" : {
                        "POSITION" : 0,
                        "NORMAL" : 1,
                        "TEXCOORD_0" : 2
                    },
                    "indices" : 3,
                    "material" : 0
                }
            ]
        },
        {
            "name" : "meshId1_name",
            "primitives" : [
                {
                    "attributes" : {
                        "POSITION" : 4,
                        "NORMAL" : 5,
                        "TEXCOORD_0" : 6
                    },
                    "indices" : 7,
                    "material" : 1
                }
            ]
        },
        {
            "name" : "meshId2_name",
            "primitives" : [
                {
                    "attributes" : {
                        "POSITION" : 8,
                        "NORMAL" : 9,
                        "TEXCOORD_0" : 10
                    },
                    "indices" : 11,
                    "material" : 2
                }
            ]
        },
        {
            "name" : "meshId3_name",
            "primitives" : [
                {
                    "attributes" : {
                        "POSITION" : 12,
                        "NORMAL" : 13,
                        "TEXCOORD_0" : 14
                    },
                    "indices" : 15,
                    "material" : 3
                }
            ]
        },
        {
            "name" : "meshId4_name",
            "primitives" : [
                {
                    "attributes" : {
                        "POSITION" : 16,
                        "NORMAL" : 17,
                        "TEXCOORD_0" : 18
                    },
                    "indices" : 19,
                    "material" : 4
                }
            ]
        },
        {
            "name" : "meshId5_name",
            "primitives" : [
                {
                    "attributes" : {
                        "POSITION" : 20,
                        "NORMAL" : 21,
                        "TEXCOORD_0" : 22
                    },
                    "indices" : 23,
                    "material" : 5
                }
            ]
        }
    ],
    "textures" : [
        {
            "sampler" : 0,
            "source" : 0
        },
        {
            "sampler" : 0,
            "source" : 1
        },
        {
            "sampler" : 0,
            "source" : 2
        },
        {
            "sampler" : 0,
            "source" : 3
        },
        {
            "sampler" : 0,
            "source" : 4
        }
    ],
    "images" : [
        {
            "mimeType" : "image/jpeg",
            "name" : "baseMaterial_albedo",
            "uri" : "baseMaterial_albedo.jpg"
        },
        {
            "mimeType" : "image/png",
            "name" : "baseMaterial_roughness",
            "uri" : "baseMaterial_roughness.png"
        },
        {
            "mimeType" : "image/jpeg",
            "name" : "buttonsBaseMaterial_albedo",
            "uri" : "buttonsBaseMaterial_albedo.jpg"
        },
        {
            "mimeType" : "image/png",
            "name" : "buttonsBaseMaterial_roughness",
            "uri" : "buttonsBaseMaterial_roughness.png"
        },
        {
            "mimeType" : "image/jpeg",
            "name" : "displayMaterial_albedo",
            "uri" : "displayMaterial_albedo.jpg"
        }
    ],
    "accessors" : [
        {
            "bufferView" : 0,
            "componentType" : 5126,
            "count" : 2804,
            "max" : [
                1.1027430295944214,
                2.075000047683716,
                3.3296051025390625
            ],
            "min" : [
                -0.18622399866580963,
                -2.075000047683716,
                -3.4538040161132812
            ],
            "type" : "VEC3"
        },
        {
            "bufferView" : 1,
            "componentType" : 5126,
            "count" : 2804,
            "type" : "VEC3"
        },
        {
            "bufferView" : 2,
            "componentType" : 5126,
            "count" : 2804,
            "type" : "VEC2"
        },
        {
            "bufferView" : 3,
            "componentType" : 5123,
            "count" : 14256,
            "type" : "SCALAR"
        },
        {
            "bufferView" : 4,
            "componentType" : 5126,
            "count" : 542,
            "max" : [
                1.0871809720993042,
                1.8319050073623657,
                2.9430630207061768
            ],
            "min" : [
                0.8422020077705383,
                -1.8319059610366821,
                -0.28196001052856445
            ],
            "type" : "VEC3"
        },
        {
            "bufferView" : 5,
            "componentType" : 5126,
            "count" : 542,
            "type" : "VEC3"
        },
        {
            "bufferView" : 6,
            "componentType" : 5126,
            "count" : 542,
            "type" : "VEC2"
        },
        {
            "bufferView" : 7,
            "componentType" : 5123,
            "count" : 792,
            "type" : "SCALAR"
        },
        {
            "bufferView" : 8,
            "componentType" : 5126,
            "count" : 201,
            "max" : [
                1.106415033340454,
                1.899999976158142,
                -0.6170899868011475
            ],
            "min" : [
                0.9815750122070312,
                -1.899999976158142,
                -1.7374119758605957
            ],
            "type" : "VEC3"
        },
        {
            "bufferView" : 9,
            "componentType" : 5126,
            "count" : 201,
            "type" : "VEC3"
        },
        {
            "bufferView" : 10,
            "componentType" : 5126,
            "count" : 201,
            "type" : "VEC2"
        },
        {
            "bufferView" : 11,
            "componentType" : 5123,
            "count" : 918,
            "type" : "SCALAR"
        },
        {
            "bufferView" : 12,
            "componentType" : 5126,
            "count" : 5644,
            "max" : [
                0.8764320015907288,
                -0.4378489851951599,
                -2.694878101348877
            ],
            "min" : [
                0.8305599689483643,
                -1.6186740398406982,
                -3.004096031188965
            ],
            "type" : "VEC3"
        },
        {
            "bufferView" : 13,
            "componentType" : 5126,
            "count" : 5644,
            "type" : "VEC3"
        },
        {
            "bufferView" : 14,
            "componentType" : 5126,
            "count" : 5644,
            "type" : "VEC2"
        },
        {
            "bufferView" : 15,
            "componentType" : 5123,
            "count" : 7560,
            "type" : "SCALAR"
        },
        {
            "bufferView" : 16,
            "componentType" : 5126,
            "count" : 234,
            "max" : [
                0.9368990063667297,
                1.5363149642944336,
                0.29584500193595886
            ],
            "min" : [
                0.9227380156517029,
                1.2078039646148682,
                0.11946199834346771
            ],
            "type" : "VEC3"
        },
        {
            "bufferView" : 17,
            "componentType" : 5126,
            "count" : 234,
            "type" : "VEC3"
        },
        {
            "bufferView" : 18,
            "componentType" : 5126,
            "count" : 234,
            "type" : "VEC2"
        },
        {
            "bufferView" : 19,
            "componentType" : 5123,
            "count" : 348,
            "type" : "SCALAR"
        },
        {
            "bufferView" : 20,
            "componentType" : 5126,
            "count" : 212,
            "max" : [
                0.9806180000305176,
                1.411033034324646,
                0.3209879994392395
            ],
            "min" : [
                0.9487119913101196,
                1.1814650297164917,
                0.09069100022315979
            ],
            "type" : "VEC3"
        },
        {
            "bufferView" : 21,
            "componentType" : 5126,
            "count" : 212,
            "type" : "VEC3"
        },
        {
            "bufferView" : 22,
            "componentType" : 5126,
            "count" : 212,
            "type" : "VEC2"
        },
        {
            "bufferView" : 23,
            "componentType" : 5123,
            "count" : 324,
            "type" : "SCALAR"
        }
    ],
    "bufferViews" : [
        {
            "buffer" : 0,
            "byteLength" : 33648,
            "byteOffset" : 0
        },
        {
            "buffer" : 0,
            "byteLength" : 33648,
            "byteOffset" : 33648
        },
        {
            "buffer" : 0,
            "byteLength" : 22432,
            "byteOffset" : 67296
        },
        {
            "buffer" : 0,
            "byteLength" : 28512,
            "byteOffset" : 89728
        },
        {
            "buffer" : 0,
            "byteLength" : 6504,
            "byteOffset" : 118240
        },
        {
            "buffer" : 0,
            "byteLength" : 6504,
            "byteOffset" : 124744
        },
        {
            "buffer" : 0,
            "byteLength" : 4336,
            "byteOffset" : 131248
        },
        {
            "buffer" : 0,
            "byteLength" : 1584,
            "byteOffset" : 135584
        },
        {
            "buffer" : 0,
            "byteLength" : 2412,
            "byteOffset" : 137168
        },
        {
            "buffer" : 0,
            "byteLength" : 2412,
            "byteOffset" : 139580
        },
        {
            "buffer" : 0,
            "byteLength" : 1608,
            "byteOffset" : 141992
        },
        {
            "buffer" : 0,
            "byteLength" : 1836,
            "byteOffset" : 143600
        },
        {
            "buffer" : 0,
            "byteLength" : 67728,
            "byteOffset" : 145436
        },
        {
            "buffer" : 0,
            "byteLength" : 67728,
            "byteOffset" : 213164
        },
        {
            "buffer" : 0,
            "byteLength" : 45152,
            "byteOffset" : 280892
        },
        {
            "buffer" : 0,
            "byteLength" : 15120,
            "byteOffset" : 326044
        },
        {
            "buffer" : 0,
            "byteLength" : 2808,
            "byteOffset" : 341164
        },
        {
            "buffer" : 0,
            "byteLength" : 2808,
            "byteOffset" : 343972
        },
        {
            "buffer" : 0,
            "byteLength" : 1872,
            "byteOffset" : 346780
        },
        {
            "buffer" : 0,
            "byteLength" : 696,
            "byteOffset" : 348652
        },
        {
            "buffer" : 0,
            "byteLength" : 2544,
            "byteOffset" : 349348
        },
        {
            "buffer" : 0,
            "byteLength" : 2544,
            "byteOffset" : 351892
        },
        {
            "buffer" : 0,
            "byteLength" : 1696,
            "byteOffset" : 354436
        },
        {
            "buffer" : 0,
            "byteLength" : 648,
            "byteOffset" : 356132
        }
    ],
    "samplers" : [
        {
            "magFilter" : 9729,
            "minFilter" : 9987
        }
    ],
    "buffers" : [
        {
            "byteLength" : 356780,
            "uri" : "calc-base.bin"
        }
    ]
}
