{
    "asset" : {
        "generator" : "Khronos glTF Blender I/O v3.2.40",
        "version" : "2.0"
    },
    "scene" : 0,
    "scenes" : [
        {
            "name" : "Scene",
            "nodes" : [
                0,
                1
            ]
        }
    ],
    "nodes" : [
        {
            "mesh" : 0,
            "name" : "calculator-base.001"
        },
        {
            "mesh" : 1,
            "name" : "calculator-base.002"
        }
    ],
    "materials" : [
        {
            "name" : "baseMaterial",
            "pbrMetallicRoughness" : {
                "baseColorFactor" : [
                    0.637596607208252,
                    0.5583400130271912,
                    0.4072403311729431,
                    1
                ],
                "metallicFactor" : 0,
                "roughnessFactor" : 0.5299999713897705
            }
        },
        {
            "name" : "buttonsBaseMaterial",
            "pbrMetallicRoughness" : {
                "baseColorFactor" : [
                    0.03921568766236305,
                    0.062745101749897,
                    0.062745101749897,
                    1
                ]
            }
        },
        {
            "name" : "displayMaterial",
            "pbrMetallicRoughness" : {
                "baseColorFactor" : [
                    0.007194240111857653,
                    0.021582700312137604,
                    0.007194240111857653,
                    1
                ],
                "metallicFactor" : 0,
                "roughnessFactor" : 0.7599999904632568
            }
        },
        {
            "name" : "signMaterial",
            "pbrMetallicRoughness" : {
                "baseColorFactor" : [
                    0.054901961237192154,
                    0.054901961237192154,
                    0.054901961237192154,
                    1
                ]
            }
        },
        {
            "name" : "dropMaterial",
            "pbrMetallicRoughness" : {
                "baseColorFactor" : [
                    0.0117647061124444,
                    0.0117647061124444,
                    0.0117647061124444,
                    1
                ]
            }
        },
        {
            "name" : "dropButtonMaterial",
            "pbrMetallicRoughness" : {
                "baseColorFactor" : [
                    0.0117647061124444,
                    0.0117647061124444,
                    0.0117647061124444,
                    1
                ]
            }
        },
        {
            "name" : "buttonsMaterial",
            "pbrMetallicRoughness" : {
                "baseColorFactor" : [
                    0.45098039507865906,
                    0.45098039507865906,
                    0.45098039507865906,
                    1
                ]
            }
        }
    ],
    "meshes" : [
        {
            "name" : "calculator-base",
            "primitives" : [
                {
                    "attributes" : {
                        "POSITION" : 0,
                        "NORMAL" : 1
                    },
                    "indices" : 2,
                    "material" : 0
                },
                {
                    "attributes" : {
                        "POSITION" : 3,
                        "NORMAL" : 4
                    },
                    "indices" : 5,
                    "material" : 1
                },
                {
                    "attributes" : {
                        "POSITION" : 6,
                        "NORMAL" : 7
                    },
                    "indices" : 8,
                    "material" : 2
                },
                {
                    "attributes" : {
                        "POSITION" : 9,
                        "NORMAL" : 10
                    },
                    "indices" : 11,
                    "material" : 3
                },
                {
                    "attributes" : {
                        "POSITION" : 12,
                        "NORMAL" : 13
                    },
                    "indices" : 14,
                    "material" : 4
                },
                {
                    "attributes" : {
                        "POSITION" : 15,
                        "NORMAL" : 16
                    },
                    "indices" : 17,
                    "material" : 5
                }
            ]
        },
        {
            "name" : "calculator-base.001",
            "primitives" : [
                {
                    "attributes" : {
                        "POSITION" : 18,
                        "NORMAL" : 19
                    },
                    "indices" : 20,
                    "material" : 6
                }
            ]
        }
    ],
    "accessors" : [
        {
            "bufferView" : 0,
            "componentType" : 5126,
            "count" : 2537,
            "max" : [
                1.1027432680130005,
                3.4538044929504395,
                2.075000286102295
            ],
            "min" : [
                -0.18622411787509918,
                -3.3296053409576416,
                -2.075000286102295
            ],
            "type" : "VEC3"
        },
        {
            "bufferView" : 1,
            "componentType" : 5126,
            "count" : 2537,
            "type" : "VEC3"
        },
        {
            "bufferView" : 2,
            "componentType" : 5123,
            "count" : 14256,
            "type" : "SCALAR"
        },
        {
            "bufferView" : 3,
            "componentType" : 5126,
            "count" : 536,
            "max" : [
                1.0871812105178833,
                0.2819604277610779,
                1.831905484199524
            ],
            "min" : [
                0.842201828956604,
                -2.9430625438690186,
                -1.8319061994552612
            ],
            "type" : "VEC3"
        },
        {
            "bufferView" : 4,
            "componentType" : 5126,
            "count" : 536,
            "type" : "VEC3"
        },
        {
            "bufferView" : 5,
            "componentType" : 5123,
            "count" : 792,
            "type" : "SCALAR"
        },
        {
            "bufferView" : 6,
            "componentType" : 5126,
            "count" : 168,
            "max" : [
                1.1064151525497437,
                1.7374122142791748,
                1.8999998569488525
            ],
            "min" : [
                0.9815748929977417,
                0.6170902252197266,
                -1.9000003337860107
            ],
            "type" : "VEC3"
        },
        {
            "bufferView" : 7,
            "componentType" : 5126,
            "count" : 168,
            "type" : "VEC3"
        },
        {
            "bufferView" : 8,
            "componentType" : 5123,
            "count" : 918,
            "type" : "SCALAR"
        },
        {
            "bufferView" : 9,
            "componentType" : 5126,
            "count" : 5566,
            "max" : [
                0.876432478427887,
                3.004096031188965,
                -0.43784937262535095
            ],
            "min" : [
                0.8305602669715881,
                2.694877862930298,
                -1.61867356300354
            ],
            "type" : "VEC3"
        },
        {
            "bufferView" : 10,
            "componentType" : 5126,
            "count" : 5566,
            "type" : "VEC3"
        },
        {
            "bufferView" : 11,
            "componentType" : 5123,
            "count" : 7560,
            "type" : "SCALAR"
        },
        {
            "bufferView" : 12,
            "componentType" : 5126,
            "count" : 228,
            "max" : [
                0.9368991851806641,
                -0.11946159601211548,
                1.536314606666565
            ],
            "min" : [
                0.9227380156517029,
                -0.29584452509880066,
                1.2078039646148682
            ],
            "type" : "VEC3"
        },
        {
            "bufferView" : 13,
            "componentType" : 5126,
            "count" : 228,
            "type" : "VEC3"
        },
        {
            "bufferView" : 14,
            "componentType" : 5123,
            "count" : 348,
            "type" : "SCALAR"
        },
        {
            "bufferView" : 15,
            "componentType" : 5126,
            "count" : 212,
            "max" : [
                0.9806183576583862,
                -0.09069059789180756,
                1.4110324382781982
            ],
            "min" : [
                0.9487119317054749,
                -0.3209877908229828,
                1.1814645528793335
            ],
            "type" : "VEC3"
        },
        {
            "bufferView" : 16,
            "componentType" : 5126,
            "count" : 212,
            "type" : "VEC3"
        },
        {
            "bufferView" : 17,
            "componentType" : 5123,
            "count" : 324,
            "type" : "SCALAR"
        },
        {
            "bufferView" : 18,
            "componentType" : 5126,
            "count" : 302,
            "max" : [
                0.02750460058450699,
                0.1808835119009018,
                0.25339701771736145
            ],
            "min" : [
                -0.027972184121608734,
                -0.18164695799350739,
                -0.2533968389034271
            ],
            "type" : "VEC3"
        },
        {
            "bufferView" : 19,
            "componentType" : 5126,
            "count" : 302,
            "type" : "VEC3"
        },
        {
            "bufferView" : 20,
            "componentType" : 5123,
            "count" : 1332,
            "type" : "SCALAR"
        }
    ],
    "bufferViews" : [
        {
            "buffer" : 0,
            "byteLength" : 30444,
            "byteOffset" : 0
        },
        {
            "buffer" : 0,
            "byteLength" : 30444,
            "byteOffset" : 30444
        },
        {
            "buffer" : 0,
            "byteLength" : 28512,
            "byteOffset" : 60888
        },
        {
            "buffer" : 0,
            "byteLength" : 6432,
            "byteOffset" : 89400
        },
        {
            "buffer" : 0,
            "byteLength" : 6432,
            "byteOffset" : 95832
        },
        {
            "buffer" : 0,
            "byteLength" : 1584,
            "byteOffset" : 102264
        },
        {
            "buffer" : 0,
            "byteLength" : 2016,
            "byteOffset" : 103848
        },
        {
            "buffer" : 0,
            "byteLength" : 2016,
            "byteOffset" : 105864
        },
        {
            "buffer" : 0,
            "byteLength" : 1836,
            "byteOffset" : 107880
        },
        {
            "buffer" : 0,
            "byteLength" : 66792,
            "byteOffset" : 109716
        },
        {
            "buffer" : 0,
            "byteLength" : 66792,
            "byteOffset" : 176508
        },
        {
            "buffer" : 0,
            "byteLength" : 15120,
            "byteOffset" : 243300
        },
        {
            "buffer" : 0,
            "byteLength" : 2736,
            "byteOffset" : 258420
        },
        {
            "buffer" : 0,
            "byteLength" : 2736,
            "byteOffset" : 261156
        },
        {
            "buffer" : 0,
            "byteLength" : 696,
            "byteOffset" : 263892
        },
        {
            "buffer" : 0,
            "byteLength" : 2544,
            "byteOffset" : 264588
        },
        {
            "buffer" : 0,
            "byteLength" : 2544,
            "byteOffset" : 267132
        },
        {
            "buffer" : 0,
            "byteLength" : 648,
            "byteOffset" : 269676
        },
        {
            "buffer" : 0,
            "byteLength" : 3624,
            "byteOffset" : 270324
        },
        {
            "buffer" : 0,
            "byteLength" : 3624,
            "byteOffset" : 273948
        },
        {
            "buffer" : 0,
            "byteLength" : 2664,
            "byteOffset" : 277572
        }
    ],
    "buffers" : [
        {
            "byteLength" : 280236,
            "uri" : "data:application/octet-stream;base64,"
        }
    ]
}
