{
    "asset" : {
        "generator" : "Khronos glTF Blender I/O v3.2.40",
        "version" : "2.0"
    },
    "scene" : 0,
    "scenes" : [
        {
            "name" : "Scene",
            "nodes" : [
                0
            ]
        }
    ],
    "nodes" : [
        {
            "mesh" : 0,
            "name" : "Box001",
            "rotation" : [
                -0.054078925400972366,
                0,
                0,
                0.9985366463661194
            ],
            "scale" : [
                0.0010000000474974513,
                0.0010000001639127731,
                0.0010000001639127731
            ]
        }
    ],
    "materials" : [
        {
            "name" : "Material__27",
            "pbrMetallicRoughness" : {
                "baseColorFactor" : [
                    0.6392160058021545,
                    0.5607839822769165,
                    0.4078429937362671,
                    1
                ],
                "metallicFactor" : 0,
                "roughnessFactor" : 0.5299999713897705
            }
        },
        {
            "name" : "fallback Material",
            "pbrMetallicRoughness" : {
                "baseColorFactor" : [
                    0.45098039507865906,
                    0.45098039507865906,
                    0.45098039507865906,
                    1
                ]
            }
        },
        {
            "name" : "fallback Material.001",
            "pbrMetallicRoughness" : {
                "baseColorFactor" : [
                    0.03921568766236305,
                    0.062745101749897,
                    0.062745101749897,
                    1
                ]
            }
        },
        {
            "name" : "Material__26",
            "pbrMetallicRoughness" : {
                "baseColorFactor" : [
                    0.007194240111857653,
                    0.021582700312137604,
                    0.007194240111857653,
                    1
                ],
                "metallicFactor" : 0,
                "roughnessFactor" : 0.7599999904632568
            }
        },
        {
            "name" : "fallback Material.002",
            "pbrMetallicRoughness" : {
                "baseColorFactor" : [
                    0.054901961237192154,
                    0.054901961237192154,
                    0.054901961237192154,
                    1
                ]
            }
        },
        {
            "name" : "fallback Material.003",
            "pbrMetallicRoughness" : {
                "baseColorFactor" : [
                    0.054901961237192154,
                    0.054901961237192154,
                    0.054901961237192154,
                    1
                ]
            }
        },
        {
            "name" : "fallback Material.004",
            "pbrMetallicRoughness" : {
                "baseColorFactor" : [
                    0.0117647061124444,
                    0.0117647061124444,
                    0.0117647061124444,
                    1
                ]
            }
        },
        {
            "name" : "fallback Material.005",
            "pbrMetallicRoughness" : {
                "baseColorFactor" : [
                    0.0117647061124444,
                    0.0117647061124444,
                    0.0117647061124444,
                    1
                ]
            }
        }
    ],
    "meshes" : [
        {
            "name" : "Box001",
            "primitives" : [
                {
                    "attributes" : {
                        "POSITION" : 0,
                        "NORMAL" : 1
                    },
                    "indices" : 2,
                    "material" : 0
                },
                {
                    "attributes" : {
                        "POSITION" : 3,
                        "NORMAL" : 4
                    },
                    "indices" : 5,
                    "material" : 1
                },
                {
                    "attributes" : {
                        "POSITION" : 6,
                        "NORMAL" : 7
                    },
                    "indices" : 8,
                    "material" : 2
                },
                {
                    "attributes" : {
                        "POSITION" : 9,
                        "NORMAL" : 10
                    },
                    "indices" : 11,
                    "material" : 3
                },
                {
                    "attributes" : {
                        "POSITION" : 12,
                        "NORMAL" : 13
                    },
                    "indices" : 14,
                    "material" : 4
                },
                {
                    "attributes" : {
                        "POSITION" : 15,
                        "NORMAL" : 16
                    },
                    "indices" : 17,
                    "material" : 5
                },
                {
                    "attributes" : {
                        "POSITION" : 18,
                        "NORMAL" : 19
                    },
                    "indices" : 20,
                    "material" : 6
                },
                {
                    "attributes" : {
                        "POSITION" : 21,
                        "NORMAL" : 22
                    },
                    "indices" : 23,
                    "material" : 7
                }
            ]
        }
    ],
    "accessors" : [
        {
            "bufferView" : 0,
            "componentType" : 5126,
            "count" : 2537,
            "max" : [
                41.5,
                67.5,
                25.831281661987305
            ],
            "min" : [
                -41.5,
                -67.5,
                0
            ],
            "type" : "VEC3"
        },
        {
            "bufferView" : 1,
            "componentType" : 5126,
            "count" : 2537,
            "type" : "VEC3"
        },
        {
            "bufferView" : 2,
            "componentType" : 5123,
            "count" : 14256,
            "type" : "SCALAR"
        },
        {
            "bufferView" : 3,
            "componentType" : 5126,
            "count" : 6644,
            "max" : [
                33.81299591064453,
                -2.6589858531951904,
                19.26234245300293
            ],
            "min" : [
                -33.73684310913086,
                -56.076194763183594,
                15.526411056518555
            ],
            "type" : "VEC3"
        },
        {
            "bufferView" : 4,
            "componentType" : 5126,
            "count" : 6644,
            "type" : "VEC3"
        },
        {
            "bufferView" : 5,
            "componentType" : 5123,
            "count" : 29304,
            "type" : "SCALAR"
        },
        {
            "bufferView" : 6,
            "componentType" : 5126,
            "count" : 536,
            "max" : [
                36.638118743896484,
                3.7070560455322266,
                18.891836166381836
            ],
            "min" : [
                -36.63811111450195,
                -60.78524398803711,
                13.722171783447266
            ],
            "type" : "VEC3"
        },
        {
            "bufferView" : 7,
            "componentType" : 5126,
            "count" : 536,
            "type" : "VEC3"
        },
        {
            "bufferView" : 8,
            "componentType" : 5123,
            "count" : 792,
            "type" : "SCALAR"
        },
        {
            "bufferView" : 9,
            "componentType" : 5126,
            "count" : 168,
            "max" : [
                38.000003814697266,
                32.29734420776367,
                25.735206604003906
            ],
            "min" : [
                -37.999996185302734,
                10.015649795532227,
                20.85660743713379
            ],
            "type" : "VEC3"
        },
        {
            "bufferView" : 10,
            "componentType" : 5126,
            "count" : 168,
            "type" : "VEC3"
        },
        {
            "bufferView" : 11,
            "componentType" : 5123,
            "count" : 918,
            "type" : "SCALAR"
        },
        {
            "bufferView" : 12,
            "componentType" : 5126,
            "count" : 2154,
            "max" : [
                32.373470306396484,
                57.90965270996094,
                23.24994659423828
            ],
            "min" : [
                8.756989479064941,
                55.73110580444336,
                22.99994659423828
            ],
            "type" : "VEC3"
        },
        {
            "bufferView" : 13,
            "componentType" : 5126,
            "count" : 2154,
            "type" : "VEC3"
        },
        {
            "bufferView" : 14,
            "componentType" : 5123,
            "count" : 3480,
            "type" : "SCALAR"
        },
        {
            "bufferView" : 15,
            "componentType" : 5126,
            "count" : 2520,
            "max" : [
                32.358299255371094,
                54.56996154785156,
                23.24994659423828
            ],
            "min" : [
                8.84123706817627,
                51.716064453125,
                22.99994659423828
            ],
            "type" : "VEC3"
        },
        {
            "bufferView" : 16,
            "componentType" : 5126,
            "count" : 2520,
            "type" : "VEC3"
        },
        {
            "bufferView" : 17,
            "componentType" : 5123,
            "count" : 4080,
            "type" : "SCALAR"
        },
        {
            "bufferView" : 18,
            "componentType" : 5126,
            "count" : 228,
            "max" : [
                -24.15608024597168,
                -4.373527526855469,
                18.188064575195312
            ],
            "min" : [
                -30.726293563842773,
                -7.9008049964904785,
                17.890079498291016
            ],
            "type" : "VEC3"
        },
        {
            "bufferView" : 19,
            "componentType" : 5126,
            "count" : 228,
            "type" : "VEC3"
        },
        {
            "bufferView" : 20,
            "componentType" : 5123,
            "count" : 348,
            "type" : "SCALAR"
        },
        {
            "bufferView" : 21,
            "componentType" : 5126,
            "count" : 212,
            "max" : [
                -23.62929344177246,
                -3.873080253601074,
                19.06448745727539
            ],
            "min" : [
                -28.220651626586914,
                -8.479658126831055,
                18.40719985961914
            ],
            "type" : "VEC3"
        },
        {
            "bufferView" : 22,
            "componentType" : 5126,
            "count" : 212,
            "type" : "VEC3"
        },
        {
            "bufferView" : 23,
            "componentType" : 5123,
            "count" : 324,
            "type" : "SCALAR"
        }
    ],
    "bufferViews" : [
        {
            "buffer" : 0,
            "byteLength" : 30444,
            "byteOffset" : 0
        },
        {
            "buffer" : 0,
            "byteLength" : 30444,
            "byteOffset" : 30444
        },
        {
            "buffer" : 0,
            "byteLength" : 28512,
            "byteOffset" : 60888
        },
        {
            "buffer" : 0,
            "byteLength" : 79728,
            "byteOffset" : 89400
        },
        {
            "buffer" : 0,
            "byteLength" : 79728,
            "byteOffset" : 169128
        },
        {
            "buffer" : 0,
            "byteLength" : 58608,
            "byteOffset" : 248856
        },
        {
            "buffer" : 0,
            "byteLength" : 6432,
            "byteOffset" : 307464
        },
        {
            "buffer" : 0,
            "byteLength" : 6432,
            "byteOffset" : 313896
        },
        {
            "buffer" : 0,
            "byteLength" : 1584,
            "byteOffset" : 320328
        },
        {
            "buffer" : 0,
            "byteLength" : 2016,
            "byteOffset" : 321912
        },
        {
            "buffer" : 0,
            "byteLength" : 2016,
            "byteOffset" : 323928
        },
        {
            "buffer" : 0,
            "byteLength" : 1836,
            "byteOffset" : 325944
        },
        {
            "buffer" : 0,
            "byteLength" : 25848,
            "byteOffset" : 327780
        },
        {
            "buffer" : 0,
            "byteLength" : 25848,
            "byteOffset" : 353628
        },
        {
            "buffer" : 0,
            "byteLength" : 6960,
            "byteOffset" : 379476
        },
        {
            "buffer" : 0,
            "byteLength" : 30240,
            "byteOffset" : 386436
        },
        {
            "buffer" : 0,
            "byteLength" : 30240,
            "byteOffset" : 416676
        },
        {
            "buffer" : 0,
            "byteLength" : 8160,
            "byteOffset" : 446916
        },
        {
            "buffer" : 0,
            "byteLength" : 2736,
            "byteOffset" : 455076
        },
        {
            "buffer" : 0,
            "byteLength" : 2736,
            "byteOffset" : 457812
        },
        {
            "buffer" : 0,
            "byteLength" : 696,
            "byteOffset" : 460548
        },
        {
            "buffer" : 0,
            "byteLength" : 2544,
            "byteOffset" : 461244
        },
        {
            "buffer" : 0,
            "byteLength" : 2544,
            "byteOffset" : 463788
        },
        {
            "buffer" : 0,
            "byteLength" : 648,
            "byteOffset" : 466332
        }
    ],
    "buffers" : [
        {
            "byteLength" : 466980,
            "uri" : "data:application/octet-stream;base64,"
        }
    ]
}
