{
  "accessors": [
    {
      "bufferView": 0,
      "componentType": 5125,
      "count": 14256,
      "type": "SCALAR"
    },
    {
      "bufferView": 1,
      "componentType": 5126,
      "count": 2804,
      "max": [
        1.102743268013,
        3.45380449295044,
        2.07500028610229
      ],
      "min": [
        -0.186224192380905,
        -3.32960534095764,
        -2.07500028610229
      ],
      "type": "VEC3"
    },
    {
      "bufferView": 2,
      "componentType": 5126,
      "count": 2804,
      "type": "VEC3"
    },
    {
      "bufferView": 3,
      "componentType": 5126,
      "count": 2804,
      "type": "VEC4"
    },
    {
      "bufferView": 4,
      "componentType": 5126,
      "count": 2804,
      "type": "VEC2"
    },
    {
      "bufferView": 5,
      "componentType": 5125,
      "count": 792,
      "type": "SCALAR"
    },
    {
      "bufferView": 6,
      "componentType": 5126,
      "count": 542,
      "max": [
        1.08718121051788,
        0.281960427761078,
        1.83190548419952
      ],
      "min": [
        0.842201828956604,
        -2.9430627822876,
        -1.83190631866455
      ],
      "type": "VEC3"
    },
    {
      "bufferView": 7,
      "componentType": 5126,
      "count": 542,
      "type": "VEC3"
    },
    {
      "bufferView": 8,
      "componentType": 5126,
      "count": 542,
      "type": "VEC4"
    },
    {
      "bufferView": 9,
      "componentType": 5126,
      "count": 542,
      "type": "VEC2"
    },
    {
      "bufferView": 10,
      "componentType": 5125,
      "count": 918,
      "type": "SCALAR"
    },
    {
      "bufferView": 11,
      "componentType": 5126,
      "count": 201,
      "max": [
        1.10641515254974,
        1.73741233348846,
        1.89999997615814
      ],
      "min": [
        0.981574892997742,
        0.617090225219727,
        -1.90000033378601
      ],
      "type": "VEC3"
    },
    {
      "bufferView": 12,
      "componentType": 5126,
      "count": 201,
      "type": "VEC3"
    },
    {
      "bufferView": 13,
      "componentType": 5126,
      "count": 201,
      "type": "VEC4"
    },
    {
      "bufferView": 14,
      "componentType": 5126,
      "count": 201,
      "type": "VEC2"
    },
    {
      "bufferView": 15,
      "componentType": 5125,
      "count": 7560,
      "type": "SCALAR"
    },
    {
      "bufferView": 16,
      "componentType": 5126,
      "count": 5578,
      "max": [
        0.876432478427887,
        3.00409603118896,
        -0.437849402427673
      ],
      "min": [
        0.830560266971588,
        2.69487810134888,
        -1.61867356300354
      ],
      "type": "VEC3"
    },
    {
      "bufferView": 17,
      "componentType": 5126,
      "count": 5578,
      "type": "VEC3"
    },
    {
      "bufferView": 18,
      "componentType": 5126,
      "count": 5578,
      "type": "VEC4"
    },
    {
      "bufferView": 19,
      "componentType": 5126,
      "count": 5578,
      "type": "VEC2"
    },
    {
      "bufferView": 20,
      "componentType": 5125,
      "count": 348,
      "type": "SCALAR"
    },
    {
      "bufferView": 21,
      "componentType": 5126,
      "count": 234,
      "max": [
        0.936899185180664,
        -0.119461596012115,
        1.53631460666656
      ],
      "min": [
        0.922738015651703,
        -0.295844525098801,
        1.20780408382416
      ],
      "type": "VEC3"
    },
    {
      "bufferView": 22,
      "componentType": 5126,
      "count": 234,
      "type": "VEC3"
    },
    {
      "bufferView": 23,
      "componentType": 5126,
      "count": 234,
      "type": "VEC4"
    },
    {
      "bufferView": 24,
      "componentType": 5126,
      "count": 234,
      "type": "VEC2"
    },
    {
      "bufferView": 25,
      "componentType": 5125,
      "count": 324,
      "type": "SCALAR"
    },
    {
      "bufferView": 26,
      "componentType": 5126,
      "count": 212,
      "max": [
        0.980618357658386,
        -0.0906905978918076,
        1.41103255748749
      ],
      "min": [
        0.94871187210083,
        -0.320987790822983,
        1.18146467208862
      ],
      "type": "VEC3"
    },
    {
      "bufferView": 27,
      "componentType": 5126,
      "count": 212,
      "type": "VEC3"
    },
    {
      "bufferView": 28,
      "componentType": 5126,
      "count": 212,
      "type": "VEC4"
    },
    {
      "bufferView": 29,
      "componentType": 5126,
      "count": 212,
      "type": "VEC2"
    }
  ],
  "asset": {
    "generator": "Adobe Substance 3D Painter 8.1.3",
    "version": "2.0"
  },
  "bufferViews": [
    {
      "buffer": 0,
      "byteLength": 57024,
      "target": 34963
    },
    {
      "buffer": 0,
      "byteLength": 33648,
      "byteOffset": 57024,
      "target": 34962
    },
    {
      "buffer": 0,
      "byteLength": 33648,
      "byteOffset": 90672,
      "target": 34962
    },
    {
      "buffer": 0,
      "byteLength": 44864,
      "byteOffset": 124320,
      "target": 34962
    },
    {
      "buffer": 0,
      "byteLength": 22432,
      "byteOffset": 169184,
      "target": 34962
    },
    {
      "buffer": 0,
      "byteLength": 3168,
      "byteOffset": 191616,
      "target": 34963
    },
    {
      "buffer": 0,
      "byteLength": 6504,
      "byteOffset": 194784,
      "target": 34962
    },
    {
      "buffer": 0,
      "byteLength": 6504,
      "byteOffset": 201288,
      "target": 34962
    },
    {
      "buffer": 0,
      "byteLength": 8672,
      "byteOffset": 207792,
      "target": 34962
    },
    {
      "buffer": 0,
      "byteLength": 4336,
      "byteOffset": 216464,
      "target": 34962
    },
    {
      "buffer": 0,
      "byteLength": 3672,
      "byteOffset": 220800,
      "target": 34963
    },
    {
      "buffer": 0,
      "byteLength": 2412,
      "byteOffset": 224472,
      "target": 34962
    },
    {
      "buffer": 0,
      "byteLength": 2412,
      "byteOffset": 226884,
      "target": 34962
    },
    {
      "buffer": 0,
      "byteLength": 3216,
      "byteOffset": 229296,
      "target": 34962
    },
    {
      "buffer": 0,
      "byteLength": 1608,
      "byteOffset": 232512,
      "target": 34962
    },
    {
      "buffer": 0,
      "byteLength": 30240,
      "byteOffset": 234120,
      "target": 34963
    },
    {
      "buffer": 0,
      "byteLength": 66936,
      "byteOffset": 264360,
      "target": 34962
    },
    {
      "buffer": 0,
      "byteLength": 66936,
      "byteOffset": 331296,
      "target": 34962
    },
    {
      "buffer": 0,
      "byteLength": 89248,
      "byteOffset": 398232,
      "target": 34962
    },
    {
      "buffer": 0,
      "byteLength": 44624,
      "byteOffset": 487480,
      "target": 34962
    },
    {
      "buffer": 0,
      "byteLength": 1392,
      "byteOffset": 532104,
      "target": 34963
    },
    {
      "buffer": 0,
      "byteLength": 2808,
      "byteOffset": 533496,
      "target": 34962
    },
    {
      "buffer": 0,
      "byteLength": 2808,
      "byteOffset": 536304,
      "target": 34962
    },
    {
      "buffer": 0,
      "byteLength": 3744,
      "byteOffset": 539112,
      "target": 34962
    },
    {
      "buffer": 0,
      "byteLength": 1872,
      "byteOffset": 542856,
      "target": 34962
    },
    {
      "buffer": 0,
      "byteLength": 1296,
      "byteOffset": 544728,
      "target": 34963
    },
    {
      "buffer": 0,
      "byteLength": 2544,
      "byteOffset": 546024,
      "target": 34962
    },
    {
      "buffer": 0,
      "byteLength": 2544,
      "byteOffset": 548568,
      "target": 34962
    },
    {
      "buffer": 0,
      "byteLength": 3392,
      "byteOffset": 551112,
      "target": 34962
    },
    {
      "buffer": 0,
      "byteLength": 1696,
      "byteOffset": 554504,
      "target": 34962
    }
  ],
  "buffers": [
    {
      "byteLength": 556200,
      "uri": "Blender.bin"
    }
  ],
  "images": [
    {
      "uri": "baseMaterial_baseColor.png"
    },
    {
      "uri": "baseMaterial_occlusionRoughnessMetallic.png"
    },
    {
      "uri": "baseMaterial_normal.png"
    },
    {
      "uri": "baseMaterial_emissive.png"
    },
    {
      "uri": "buttonsBaseMaterial_baseColor.png"
    },
    {
      "uri": "buttonsBaseMaterial_occlusionRoughnessMetallic.png"
    },
    {
      "uri": "buttonsBaseMaterial_normal.png"
    },
    {
      "uri": "buttonsBaseMaterial_emissive.png"
    },
    {
      "uri": "displayMaterial_baseColor.png"
    },
    {
      "uri": "displayMaterial_occlusionRoughnessMetallic.png"
    },
    {
      "uri": "displayMaterial_normal.png"
    },
    {
      "uri": "displayMaterial_emissive.png"
    },
    {
      "uri": "dropButtonMaterial_baseColor.png"
    },
    {
      "uri": "dropButtonMaterial_occlusionRoughnessMetallic.png"
    },
    {
      "uri": "dropButtonMaterial_normal.png"
    },
    {
      "uri": "dropButtonMaterial_emissive.png"
    },
    {
      "uri": "dropMaterial_baseColor.png"
    },
    {
      "uri": "dropMaterial_occlusionRoughnessMetallic.png"
    },
    {
      "uri": "dropMaterial_normal.png"
    },
    {
      "uri": "dropMaterial_emissive.png"
    },
    {
      "uri": "signMaterial_baseColor.png"
    },
    {
      "uri": "signMaterial_occlusionRoughnessMetallic.png"
    },
    {
      "uri": "signMaterial_normal.png"
    },
    {
      "uri": "signMaterial_emissive.png"
    }
  ],
  "materials": [
    {
      "alphaMode": "BLEND",
      "emissiveFactor": [
        1.0,
        1.0,
        1.0
      ],
      "emissiveTexture": {
        "index": 3
      },
      "name": "baseMaterial",
      "normalTexture": {
        "index": 2
      },
      "occlusionTexture": {
        "index": 1
      },
      "pbrMetallicRoughness": {
        "baseColorTexture": {
          "index": 0
        },
        "metallicRoughnessTexture": {
          "index": 1
        }
      }
    },
    {
      "alphaMode": "BLEND",
      "emissiveFactor": [
        1.0,
        1.0,
        1.0
      ],
      "emissiveTexture": {
        "index": 7
      },
      "name": "buttonsBaseMaterial",
      "normalTexture": {
        "index": 6
      },
      "occlusionTexture": {
        "index": 5
      },
      "pbrMetallicRoughness": {
        "baseColorTexture": {
          "index": 4
        },
        "metallicRoughnessTexture": {
          "index": 5
        }
      }
    },
    {
      "alphaMode": "BLEND",
      "emissiveFactor": [
        1.0,
        1.0,
        1.0
      ],
      "emissiveTexture": {
        "index": 11
      },
      "name": "displayMaterial",
      "normalTexture": {
        "index": 10
      },
      "occlusionTexture": {
        "index": 9
      },
      "pbrMetallicRoughness": {
        "baseColorTexture": {
          "index": 8
        },
        "metallicRoughnessTexture": {
          "index": 9
        }
      }
    },
    {
      "alphaMode": "BLEND",
      "emissiveFactor": [
        1.0,
        1.0,
        1.0
      ],
      "emissiveTexture": {
        "index": 15
      },
      "name": "dropButtonMaterial",
      "normalTexture": {
        "index": 14
      },
      "occlusionTexture": {
        "index": 13
      },
      "pbrMetallicRoughness": {
        "baseColorTexture": {
          "index": 12
        },
        "metallicRoughnessTexture": {
          "index": 13
        }
      }
    },
    {
      "alphaMode": "BLEND",
      "emissiveFactor": [
        1.0,
        1.0,
        1.0
      ],
      "emissiveTexture": {
        "index": 19
      },
      "name": "dropMaterial",
      "normalTexture": {
        "index": 18
      },
      "occlusionTexture": {
        "index": 17
      },
      "pbrMetallicRoughness": {
        "baseColorTexture": {
          "index": 16
        },
        "metallicRoughnessTexture": {
          "index": 17
        }
      }
    },
    {
      "alphaMode": "BLEND",
      "emissiveFactor": [
        1.0,
        1.0,
        1.0
      ],
      "emissiveTexture": {
        "index": 23
      },
      "name": "signMaterial",
      "normalTexture": {
        "index": 22
      },
      "occlusionTexture": {
        "index": 21
      },
      "pbrMetallicRoughness": {
        "baseColorTexture": {
          "index": 20
        },
        "metallicRoughnessTexture": {
          "index": 21
        }
      }
    }
  ],
  "meshes": [
    {
      "name": "calculator-base-0",
      "primitives": [
        {
          "attributes": {
            "NORMAL": 2,
            "POSITION": 1,
            "TANGENT": 3,
            "TEXCOORD_0": 4
          },
          "indices": 0,
          "material": 0,
          "mode": 4
        }
      ]
    },
    {
      "name": "calculator-base-1",
      "primitives": [
        {
          "attributes": {
            "NORMAL": 7,
            "POSITION": 6,
            "TANGENT": 8,
            "TEXCOORD_0": 9
          },
          "indices": 5,
          "material": 1,
          "mode": 4
        }
      ]
    },
    {
      "name": "calculator-base-2",
      "primitives": [
        {
          "attributes": {
            "NORMAL": 12,
            "POSITION": 11,
            "TANGENT": 13,
            "TEXCOORD_0": 14
          },
          "indices": 10,
          "material": 2,
          "mode": 4
        }
      ]
    },
    {
      "name": "calculator-base-3",
      "primitives": [
        {
          "attributes": {
            "NORMAL": 17,
            "POSITION": 16,
            "TANGENT": 18,
            "TEXCOORD_0": 19
          },
          "indices": 15,
          "material": 5,
          "mode": 4
        }
      ]
    },
    {
      "name": "calculator-base-4",
      "primitives": [
        {
          "attributes": {
            "NORMAL": 22,
            "POSITION": 21,
            "TANGENT": 23,
            "TEXCOORD_0": 24
          },
          "indices": 20,
          "material": 4,
          "mode": 4
        }
      ]
    },
    {
      "name": "calculator-base-5",
      "primitives": [
        {
          "attributes": {
            "NORMAL": 27,
            "POSITION": 26,
            "TANGENT": 28,
            "TEXCOORD_0": 29
          },
          "indices": 25,
          "material": 3,
          "mode": 4
        }
      ]
    }
  ],
  "nodes": [
    {
      "children": [
        1,
        2,
        3,
        4,
        5,
        6
      ],
      "name": "calculator-base.001"
    },
    {
      "mesh": 0,
      "name": "calculator-base-0"
    },
    {
      "mesh": 1,
      "name": "calculator-base-1"
    },
    {
      "mesh": 2,
      "name": "calculator-base-2"
    },
    {
      "mesh": 3,
      "name": "calculator-base-3"
    },
    {
      "mesh": 4,
      "name": "calculator-base-4"
    },
    {
      "mesh": 5,
      "name": "calculator-base-5"
    }
  ],
  "samplers": [
    {
      "magFilter": 9729,
      "minFilter": 9985,
      "wrapS": 10497,
      "wrapT": 10497
    }
  ],
  "scene": 0,
  "scenes": [
    {
      "name": "Scene",
      "nodes": [
        0
      ]
    }
  ],
  "textures": [
    {
      "sampler": 0,
      "source": 0
    },
    {
      "sampler": 0,
      "source": 1
    },
    {
      "sampler": 0,
      "source": 2
    },
    {
      "sampler": 0,
      "source": 3
    },
    {
      "sampler": 0,
      "source": 4
    },
    {
      "sampler": 0,
      "source": 5
    },
    {
      "sampler": 0,
      "source": 6
    },
    {
      "sampler": 0,
      "source": 7
    },
    {
      "sampler": 0,
      "source": 8
    },
    {
      "sampler": 0,
      "source": 9
    },
    {
      "sampler": 0,
      "source": 10
    },
    {
      "sampler": 0,
      "source": 11
    },
    {
      "sampler": 0,
      "source": 12
    },
    {
      "sampler": 0,
      "source": 13
    },
    {
      "sampler": 0,
      "source": 14
    },
    {
      "sampler": 0,
      "source": 15
    },
    {
      "sampler": 0,
      "source": 16
    },
    {
      "sampler": 0,
      "source": 17
    },
    {
      "sampler": 0,
      "source": 18
    },
    {
      "sampler": 0,
      "source": 19
    },
    {
      "sampler": 0,
      "source": 20
    },
    {
      "sampler": 0,
      "source": 21
    },
    {
      "sampler": 0,
      "source": 22
    },
    {
      "sampler": 0,
      "source": 23
    }
  ]
}