{
    "asset" : {
        "generator" : "Khronos glTF Blender I/O v1.7.33",
        "version" : "2.0"
    },
    "scene" : 0,
    "scenes" : [
        {
            "name" : "Scene",
            "nodes" : [
                0
            ]
        }
    ],
    "nodes" : [
        {
            "mesh" : 0,
            "name" : "calculator-base"
        }
    ],
    "materials" : [
        {
            "doubleSided" : true,
            "name" : "Material.001",
            "pbrMetallicRoughness" : {
                "baseColorFactor" : [
                    0.800000011920929,
                    0.800000011920929,
                    0.800000011920929,
                    1
                ],
                "metallicFactor" : 0,
                "roughnessFactor" : 0.4000000059604645
            }
        }
    ],
    "meshes" : [
        {
            "name" : "Cube.001",
            "primitives" : [
                {
                    "attributes" : {
                        "POSITION" : 0,
                        "NORMAL" : 1,
                        "TEXCOORD_0" : 2
                    },
                    "indices" : 3,
                    "material" : 0
                }
            ]
        }
    ],
    "accessors" : [
        {
            "bufferView" : 0,
            "componentType" : 5126,
            "count" : 1298,
            "max" : [
                0.3846759796142578,
                2.8106586933135986,
                1.6124515533447266
            ],
            "min" : [
                -0.3846759796142578,
                -2.8106586933135986,
                -1.6124515533447266
            ],
            "type" : "VEC3"
        },
        {
            "bufferView" : 1,
            "componentType" : 5126,
            "count" : 1298,
            "type" : "VEC3"
        },
        {
            "bufferView" : 2,
            "componentType" : 5126,
            "count" : 1298,
            "type" : "VEC2"
        },
        {
            "bufferView" : 3,
            "componentType" : 5123,
            "count" : 2580,
            "type" : "SCALAR"
        }
    ],
    "bufferViews" : [
        {
            "buffer" : 0,
            "byteLength" : 15576,
            "byteOffset" : 0
        },
        {
            "buffer" : 0,
            "byteLength" : 15576,
            "byteOffset" : 15576
        },
        {
            "buffer" : 0,
            "byteLength" : 10384,
            "byteOffset" : 31152
        },
        {
            "buffer" : 0,
            "byteLength" : 5160,
            "byteOffset" : 41536
        }
    ],
    "buffers" : [
        {
            "byteLength" : 46696,
            "uri" : "data:application/octet-stream;base64,"
        }
    ]
}
