<svg width="64" height="64" viewBox="0 0 64 64" fill="none" xmlns="http://www.w3.org/2000/svg">
<path fill-rule="evenodd" clip-rule="evenodd" d="M32 64C49.6731 64 64 49.6731 64 32C64 14.3269 49.6731 0 32 0C14.3269 0 0 14.3269 0 32C0 49.6731 14.3269 64 32 64ZM50.3043 17H46.913V47H50.3043V17ZM40.1304 23H43.5217V41.2609H40.1304V23ZM36.7391 28.2174H33.3478V36.0435H36.7391V28.2174ZM26.5652 17.2609H29.9565V47H26.5652V44.3913H23.1739V41.7826H19.7826V36.5652H13V27.6957H19.7826V22.4783H23.1739V19.8696H26.5652V17.2609Z" fill="#FF7EF4"/>
</svg>
