<svg width="64" height="64" viewBox="0 0 64 64" fill="none" xmlns="http://www.w3.org/2000/svg">
<path fill-rule="evenodd" clip-rule="evenodd" d="M32 64C49.6731 64 64 49.6731 64 32C64 14.3269 49.6731 0 32 0C14.3269 0 0 14.3269 0 32C0 49.6731 14.3269 64 32 64ZM29.9545 17H26.5636V19.6084H23.1727V22.2168H19.7818V27.4336H13V36.3021H19.7818V41.5189H23.1727V44.1273H26.5636V46.7357H29.9545V17ZM36.7364 25.086H33.3455V27.6944H36.7364V30.3028H40.1273V32.9112H36.7364V35.5196H33.3455V38.128H36.7364V35.5196H40.1273V32.9112H43.5182V35.5196H46.9091V38.128H50.3V35.5196H46.9091V32.9112H43.5182V30.3028H46.9091V27.6944H50.3V25.086H46.9091V27.6944H43.5182V30.3028H40.1273V27.6944H36.7364V25.086Z" fill="#FF7EF4"/>
</svg>
