{
    "asset" : {
        "generator" : "Khronos glTF Blender I/O v3.2.40",
        "version" : "2.0"
    },
    "scene" : 0,
    "scenes" : [
        {
            "name" : "Scene",
            "nodes" : [
                0
            ]
        }
    ],
    "nodes" : [
        {
            "mesh" : 0,
            "name" : "calc-button"
        }
    ],
    "materials" : [
        {
            "name" : "buttonsMaterial",
            "pbrMetallicRoughness" : {
                "baseColorFactor" : [
                    0.45098039507865906,
                    0.45098039507865906,
                    0.45098039507865906,
                    1
                ]
            }
        }
    ],
    "meshes" : [
        {
            "name" : "calculator-base.001",
            "primitives" : [
                {
                    "attributes" : {
                        "POSITION" : 0,
                        "NORMAL" : 1
                    },
                    "indices" : 2,
                    "material" : 0
                }
            ]
        }
    ],
    "accessors" : [
        {
            "bufferView" : 0,
            "componentType" : 5126,
            "count" : 302,
            "max" : [
                0.02750460058450699,
                0.1808835119009018,
                0.25339701771736145
            ],
            "min" : [
                -0.027972184121608734,
                -0.18164695799350739,
                -0.2533968389034271
            ],
            "type" : "VEC3"
        },
        {
            "bufferView" : 1,
            "componentType" : 5126,
            "count" : 302,
            "type" : "VEC3"
        },
        {
            "bufferView" : 2,
            "componentType" : 5123,
            "count" : 1332,
            "type" : "SCALAR"
        }
    ],
    "bufferViews" : [
        {
            "buffer" : 0,
            "byteLength" : 3624,
            "byteOffset" : 0
        },
        {
            "buffer" : 0,
            "byteLength" : 3624,
            "byteOffset" : 3624
        },
        {
            "buffer" : 0,
            "byteLength" : 2664,
            "byteOffset" : 7248
        }
    ],
    "buffers" : [
        {
            "byteLength" : 9912,
            "uri" : "data:application/octet-stream;base64,"
        }
    ]
}
